<svg xmlns="http://www.w3.org/2000/svg" version="1.1" xmlns:xlink="http://www.w3.org/1999/xlink" xmlns:svgjs="http://svgjs.dev/svgjs" width="1500" height="1500" viewBox="0 0 1500 1500"><rect width="1500" height="1500" fill="#ffffff"></rect><g transform="matrix(0.6666666666666666,0,0,0.6666666666666666,250.0772934230531,353.3214574898785)"><svg viewBox="0 0 311 247" data-background-color="#f0e9e1" preserveAspectRatio="xMidYMid meet" height="1191" width="1500" xmlns="http://www.w3.org/2000/svg" xmlns:xlink="http://www.w3.org/1999/xlink"><g id="tight-bounds" transform="matrix(1,0,0,1,-0.024038254569518358,-0.09999999999999432)"><svg viewBox="0 0 311.04807650913904 247.2" height="247.2" width="311.04807650913904"><g><svg viewBox="0 0 395.52 314.33257873603117" height="247.2" width="311.04807650913904"><g transform="matrix(1,0,0,1,0,231.04122250854533)"><svg viewBox="0 0 395.52 83.29135622748582" height="83.29135622748582" width="395.52"><g id="textblocktransform"><svg viewBox="0 0 395.52 83.29135622748582" height="83.29135622748582" width="395.52" id="textblock"><g><svg viewBox="0 0 395.52 57.21574940178377" height="57.21574940178377" width="395.52"><g transform="matrix(1,0,0,1,0,0)"><svg width="395.52" viewBox="1.05 -32.75 229.82 33.25" height="57.21574940178377" data-palette-color="#899581"><path d="M16-22.3L15.2-19.4Q14.25-19.65 13.18-19.83 12.1-20 11.2-20L11.2-20Q9.4-20 8.43-19.4 7.45-18.8 7.1-18.3L7.1-18.3Q6.3-17.25 6.15-15.8 6-14.35 6-13.25L6-13.25 6-3.8Q8.3-2.5 11.2-2.5L11.2-2.5Q12.6-2.5 13.83-2.75 15.05-3 16.3-3.6L16.3-3.6 16.3-0.45Q13.9 0.5 11.15 0.5L11.15 0.5Q8.6 0.5 6.65-0.08 4.7-0.65 3.33-1.5 1.95-2.35 1.05-3.05L1.05-3.05 2.8-5.1 2.8-13.25Q2.8-14.2 2.85-15.5 2.9-16.8 3.35-18.2 3.8-19.6 4.95-20.8L4.95-20.8Q6.4-22.3 8.15-22.65 9.9-23 11.3-23L11.3-23Q12.6-23 13.78-22.8 14.95-22.6 16-22.3L16-22.3ZM19.75-32.75L23.95-32.75 23.95-12.95Q23.95-10.2 24.22-8.33 24.5-6.45 25.55-5 26.6-3.55 28.9-2.15L28.9-2.15 27.25 0.5Q24.5-0.95 23.1-2.78 21.7-4.6 21.22-7.05 20.75-9.5 20.75-12.95L20.75-12.95 20.75-29.6 19.75-32.75ZM31.99-30.8L35.55-30.8 35.55-27.05 31.99-27.05 31.99-30.8ZM31.14-22.5L35.34-22.5 35.34 0 32.2 0 32.2-19.35 31.14-22.5ZM41.64-17.25L40.24-19.7Q42.99-21.35 46.34-22.18 49.69-23 53.34-23L53.34-23Q54.24-23 55.89-22.85 57.54-22.7 59.37-22.15 61.19-21.6 62.54-20.3L62.54-20.3Q64.44-18.5 64.82-16.23 65.19-13.95 65.19-11.9L65.19-11.9 65.19 0 62.04 0 62.04-10.15Q62.04-11.4 61.99-12.88 61.94-14.35 61.59-15.73 61.24-17.1 60.29-18.05L60.29-18.05Q59.39-19 57.84-19.5 56.29-20 55.04-20L55.04-20 55.04 0 51.84 0 51.84-20Q50.09-20 48.27-19.68 46.44-19.35 44.84-18.65L44.84-18.65 44.84 0 41.64 0 41.64-17.25ZM72.99-19.85L73.24-23Q75.34-23 77.44-22.63 79.54-22.25 81.29-21.33 83.04-20.4 84.09-18.68 85.14-16.95 85.14-14.25L85.14-14.25 85.14-4.25 86.49-1.95Q84.19-0.65 81.92-0.08 79.64 0.5 77.74 0.5L77.74 0.5Q75.29 0.5 73.79-0.13 72.29-0.75 71.44-1.55L71.44-1.55Q70.64-2.4 70.04-3.68 69.44-4.95 69.44-6.55L69.44-6.55Q69.44-9.05 70.49-10.68 71.54-12.3 73.31-13.2 75.09-14.1 77.31-14.48 79.54-14.85 81.94-14.85L81.94-14.85Q81.84-16.5 80.97-17.48 80.09-18.45 78.77-18.95 77.44-19.45 75.94-19.63 74.44-19.8 72.99-19.85L72.99-19.85ZM81.94-3.35L81.94-11.85Q80.74-11.85 79.19-11.7 77.64-11.55 76.19-11.08 74.74-10.6 73.79-9.6 72.84-8.6 72.84-6.9L72.84-6.9Q72.84-5.75 73.19-4.98 73.54-4.2 73.99-3.8L73.99-3.8Q74.79-3 75.81-2.75 76.84-2.5 77.84-2.5L77.84-2.5Q79.04-2.5 80.04-2.75 81.04-3 81.94-3.35L81.94-3.35ZM89.69-28.5L93.89-28.5 93.89-22.5 98.64-22.5 98.64-19.4 93.89-19.4 93.89-12.95Q93.89-11.55 93.96-9.8 94.04-8.05 94.99-6.45L94.99-6.45Q95.69-5.3 97.16-4.05 98.64-2.8 99.94-2L99.94-2 98.04 0.5Q96.59-0.3 95.11-1.5 93.64-2.7 92.69-4L92.69-4Q91.34-5.9 91.01-7.83 90.69-9.75 90.69-11.65L90.69-11.65 90.69-25.35 89.69-28.5ZM118.54-10.35L106.34-10.35 106.34-3.8Q107.49-3 108.84-2.75 110.19-2.5 111.34-2.5L111.34-2.5Q113.49-2.5 115.21-2.98 116.94-3.45 118.54-4.55L118.54-4.55 118.54-1.2Q117.04-0.3 115.26 0.1 113.49 0.5 111.44 0.5L111.44 0.5Q108.24 0.5 105.81-0.4 103.39-1.3 101.39-3.05L101.39-3.05 103.14-5.1 103.14-13.25Q103.14-14.2 103.16-15.5 103.19-16.8 103.59-18.2 103.99-19.6 105.04-20.8L105.04-20.8Q106.39-22.3 107.96-22.65 109.54-23 110.79-23L110.79-23Q112.09-23 113.66-22.65 115.24-22.3 116.54-20.8L116.54-20.8Q117.59-19.6 118.01-18.2 118.44-16.8 118.49-15.5 118.54-14.2 118.54-13.25L118.54-13.25 118.54-10.35ZM106.34-13.35L115.04-13.35Q115.04-14.45 114.94-15.85 114.84-17.25 114.14-18.3L114.14-18.3Q113.84-18.8 113.04-19.4 112.24-20 110.69-20L110.69-20Q109.19-20 108.36-19.4 107.54-18.8 107.19-18.3L107.19-18.3Q106.54-17.25 106.44-15.85 106.34-14.45 106.34-13.35L106.34-13.35ZM135.43-19.85L135.68-23Q137.78-23 139.88-22.63 141.98-22.25 143.73-21.33 145.48-20.4 146.53-18.68 147.58-16.95 147.58-14.25L147.58-14.25 147.58-4.25 148.93-1.95Q146.63-0.65 144.36-0.08 142.08 0.5 140.18 0.5L140.18 0.5Q137.73 0.5 136.23-0.13 134.73-0.75 133.88-1.55L133.88-1.55Q133.08-2.4 132.48-3.68 131.88-4.95 131.88-6.55L131.88-6.55Q131.88-9.05 132.93-10.68 133.98-12.3 135.76-13.2 137.53-14.1 139.76-14.48 141.98-14.85 144.38-14.85L144.38-14.85Q144.28-16.5 143.41-17.48 142.53-18.45 141.21-18.95 139.88-19.45 138.38-19.63 136.88-19.8 135.43-19.85L135.43-19.85ZM144.38-3.35L144.38-11.85Q143.18-11.85 141.63-11.7 140.08-11.55 138.63-11.08 137.18-10.6 136.23-9.6 135.28-8.6 135.28-6.9L135.28-6.9Q135.28-5.75 135.63-4.98 135.98-4.2 136.43-3.8L136.43-3.8Q137.23-3 138.26-2.75 139.28-2.5 140.28-2.5L140.28-2.5Q141.48-2.5 142.48-2.75 143.48-3 144.38-3.35L144.38-3.35ZM166.53-22.3L165.73-19.4Q164.78-19.65 163.7-19.83 162.63-20 161.73-20L161.73-20Q159.93-20 158.95-19.4 157.98-18.8 157.63-18.3L157.63-18.3Q156.83-17.25 156.68-15.8 156.53-14.35 156.53-13.25L156.53-13.25 156.53-3.8Q158.83-2.5 161.73-2.5L161.73-2.5Q163.13-2.5 164.35-2.75 165.58-3 166.83-3.6L166.83-3.6 166.83-0.45Q164.43 0.5 161.68 0.5L161.68 0.5Q159.13 0.5 157.18-0.08 155.23-0.65 153.85-1.5 152.48-2.35 151.58-3.05L151.58-3.05 153.33-5.1 153.33-13.25Q153.33-14.2 153.38-15.5 153.43-16.8 153.88-18.2 154.33-19.6 155.48-20.8L155.48-20.8Q156.93-22.3 158.68-22.65 160.43-23 161.83-23L161.83-23Q163.13-23 164.3-22.8 165.48-22.6 166.53-22.3L166.53-22.3ZM170.03-28.5L174.23-28.5 174.23-22.5 178.98-22.5 178.98-19.4 174.23-19.4 174.23-12.95Q174.23-11.55 174.3-9.8 174.38-8.05 175.33-6.45L175.33-6.45Q176.03-5.3 177.5-4.05 178.98-2.8 180.28-2L180.28-2 178.38 0.5Q176.93-0.3 175.45-1.5 173.98-2.7 173.03-4L173.03-4Q171.68-5.9 171.35-7.83 171.03-9.75 171.03-11.65L171.03-11.65 171.03-25.35 170.03-28.5ZM183.62-30.8L187.17-30.8 187.17-27.05 183.62-27.05 183.62-30.8ZM182.77-22.5L186.97-22.5 186.97 0 183.82 0 183.82-19.35 182.77-22.5ZM192.72-1.75L192.72-13.25Q192.72-14.2 192.77-15.5 192.82-16.8 193.25-18.2 193.67-19.6 194.77-20.8L194.77-20.8Q196.17-22.3 197.85-22.65 199.52-23 200.77-23L200.77-23Q202.07-23 203.72-22.65 205.37-22.3 206.77-20.8L206.77-20.8Q207.87-19.6 208.3-18.2 208.72-16.8 208.77-15.5 208.82-14.2 208.82-13.25L208.82-13.25 208.82-5.1 210.52-3.05Q208.52-1.3 206.12-0.4 203.72 0.5 200.77 0.5L200.77 0.5Q197.87 0.5 195.9-0.23 193.92-0.95 192.72-1.75L192.72-1.75ZM195.92-13.35L195.92-3.8Q197.07-3 198.37-2.75 199.67-2.5 200.77-2.5L200.77-2.5Q201.87-2.5 203.2-2.75 204.52-3 205.62-3.8L205.62-3.8 205.62-13.35Q205.62-14.45 205.5-15.85 205.37-17.25 204.62-18.3L204.62-18.3Q204.27-18.8 203.37-19.4 202.47-20 200.77-20L200.77-20Q199.07-20 198.2-19.4 197.32-18.8 196.92-18.3L196.92-18.3Q196.17-17.25 196.05-15.85 195.92-14.45 195.92-13.35L195.92-13.35ZM214.72-18.25L213.57-20.7Q214.87-21.5 217.02-22.25 219.17-23 222.17-23L222.17-23Q223.47-23 224.94-22.73 226.42-22.45 227.77-21.63 229.12-20.8 229.97-19.05L229.97-19.05Q230.32-18.3 230.49-17.25 230.67-16.2 230.77-14.53 230.87-12.85 230.87-10.15L230.87-10.15 230.87 0 227.67 0 227.67-10.25Q227.67-13.55 227.49-15.28 227.32-17 226.72-17.95L226.72-17.95Q226.27-18.65 225.19-19.33 224.12-20 221.97-20L221.97-20Q220.77-20 219.77-19.8 218.77-19.6 217.92-19.25L217.92-19.25 217.92 0 214.72 0 214.72-18.25Z" opacity="1" transform="matrix(1,0,0,1,0,0)" fill="#000000" class="wordmark-text-0" data-fill-palette-color="primary" id="text-0"></path></svg></g></svg></g><g transform="matrix(1,0,0,1,75.54432,70.72301465755928)"><svg viewBox="0 0 244.43135999999998 12.568341569926543" height="12.568341569926543" width="244.43135999999998"><g transform="matrix(1,0,0,1,0,0)"><svg width="244.43135999999998" viewBox="0 -34.9 694.25 35.699999999999996" height="12.568341569926543" data-palette-color="#899581"><path d="M0.15 0.15L0.15 0.15 0-1.3Q2.35-1.75 3.35-2.27 4.35-2.8 4.65-3.75L4.65-3.75 14.6-34.2 18.8-34.7 30.45-3.45Q30.8-2.6 31.63-2.15 32.45-1.7 34.7-1.3L34.7-1.3 34.55 0.15Q32.9 0.05 31.3 0.03 29.7 0 27.9 0L27.9 0Q23.95 0 20.85 0.15L20.85 0.15 20.7-1.3Q23.3-1.8 24.2-2.2 25.1-2.6 25.1-3.2L25.1-3.2 22.35-12.1 11.05-12.1 8.35-3.2Q8.35-2.6 9.3-2.2 10.25-1.8 12.65-1.3L12.65-1.3 12.5 0.15Q10.85 0.05 9.25 0.03 7.65 0 5.85 0L5.85 0Q4.3 0 3.2 0.03 2.1 0.05 0.15 0.15ZM16.3-29.5L11.75-14.4 21.55-14.4 16.5-29.5 16.3-29.5ZM51.9 0.6L51.9 0.6Q46.3 0.6 42.32-1.48 38.35-3.55 36.22-7.43 34.1-11.3 34.1-16.7L34.1-16.7Q34.1-22 36.35-26.05 38.6-30.1 42.62-32.4 46.65-34.7 51.85-34.7L51.85-34.7Q54.95-34.7 56.97-34.33 59-33.95 60.55-33.95L60.55-33.95Q61.9-33.95 63.15-34.25L63.15-34.25Q63.15-32.45 63.32-30.23 63.5-28 63.75-26.45L63.75-26.45 62.4-25.85Q61.4-29.05 58.67-30.73 55.95-32.4 51.8-32.4L51.8-32.4Q48.05-32.4 45.25-30.55 42.45-28.7 40.9-25.38 39.35-22.05 39.35-17.55L39.35-17.55Q39.35-12.85 40.95-9.33 42.55-5.8 45.4-3.83 48.25-1.85 52.05-1.85L52.05-1.85Q56.55-1.85 59.6-3.73 62.65-5.6 63.75-9L63.75-9 65.1-8.4Q64.65-6.8 64.35-5 64.05-3.2 63.95-1.7L63.95-1.7Q57.65 0.6 51.9 0.6ZM82.8-34.25L82.8-34.25Q87.65-34.25 91.12-34.3 94.6-34.35 97.65-34.55L97.65-34.55 97.65-33.8Q97.65-32.75 97.72-31.35 97.8-29.95 97.95-28.63 98.1-27.3 98.25-26.45L98.25-26.45 96.9-25.85Q96.25-27.95 95.52-29.23 94.8-30.5 93.72-31.13 92.65-31.75 91.02-31.95 89.4-32.15 87-32.15L87-32.15Q86.4-32.15 85.92-31.95 85.45-31.75 85.35-30.8L85.35-30.8Q85.35-30.8 85.25-29.63 85.15-28.45 85.05-25.48 84.95-22.5 84.95-17.1L84.95-17.1Q84.95-11.7 85.05-8.75 85.15-5.8 85.25-4.63 85.35-3.45 85.35-3.45L85.35-3.45Q85.45-2.5 86.4-2.13 87.35-1.75 89.6-1.3L89.6-1.3 89.45 0.15Q87.9 0.05 86.3 0.03 84.7 0 82.8 0L82.8 0Q78.9 0 75.75 0.15L75.75 0.15 75.6-1.3Q77.85-1.75 78.9-2.13 79.95-2.5 80.05-3.45L80.05-3.45Q80.05-3.45 80.15-4.63 80.25-5.8 80.35-8.78 80.45-11.75 80.45-17.1L80.45-17.1Q80.45-22.5 80.35-25.48 80.25-28.45 80.15-29.63 80.05-30.8 80.05-30.8L80.05-30.8Q79.95-31.75 79.5-31.95 79.05-32.15 78.5-32.15L78.5-32.15Q76.1-32.15 74.47-31.95 72.85-31.75 71.8-31.13 70.75-30.5 70-29.23 69.25-27.95 68.6-25.85L68.6-25.85 67.25-26.45Q67.4-27.3 67.55-28.63 67.7-29.95 67.77-31.35 67.85-32.75 67.85-33.8L67.85-33.8 67.85-34.55Q70.95-34.35 74.45-34.3 77.95-34.25 82.8-34.25ZM120.69-34.25L141.44-6.6 141.69-6.6Q141.79-8.7 141.79-11.4 141.79-14.1 141.79-17.1L141.79-17.1Q141.79-22.5 141.67-25.48 141.54-28.45 141.44-29.63 141.34-30.8 141.34-30.8L141.34-30.8Q141.24-31.75 140.07-32.13 138.89-32.5 136.64-32.95L136.64-32.95 136.79-34.4Q138.39-34.35 140.22-34.3 142.04-34.25 143.89-34.25L143.89-34.25Q145.14-34.25 145.94-34.27 146.74-34.3 147.47-34.33 148.19-34.35 149.24-34.4L149.24-34.4 149.39-32.95Q147.14-32.5 146.27-32.13 145.39-31.75 145.29-30.8L145.29-30.8Q145.29-30.8 145.17-29.63 145.04-28.45 144.92-25.48 144.79-22.5 144.79-17.1L144.79-17.1Q144.79-9.05 145.07-4.53 145.34 0 145.34 0L145.34 0 141.34 0.45 121.04-26.85 120.79-26.85Q120.74-25.2 120.67-22.75 120.59-20.3 120.59-17.1L120.59-17.1Q120.59-11.7 120.74-8.75 120.89-5.8 121.02-4.63 121.14-3.45 121.14-3.45L121.14-3.45Q121.24-2.5 122.42-2.13 123.59-1.75 125.84-1.3L125.84-1.3 125.69 0.15Q124.14 0.05 122.32 0.03 120.49 0 118.59 0L118.59 0Q116.74 0 115.42 0.03 114.09 0.05 112.49 0.15L112.49 0.15 112.34-1.3Q114.59-1.7 115.84-2.1 117.09-2.5 117.19-3.45L117.19-3.45Q117.19-3.45 117.29-4.63 117.39-5.8 117.49-8.75 117.59-11.7 117.59-17.1L117.59-17.1Q117.59-22.5 117.49-25.48 117.39-28.45 117.29-29.63 117.19-30.8 117.19-30.8L117.19-30.8Q117.09-31.75 116.22-32.13 115.34-32.5 113.09-32.95L113.09-32.95 113.24-34.4Q114.84-34.35 116.84-34.3 118.84-34.25 120.69-34.25L120.69-34.25ZM187.39-18.45L187.39-18.45Q187.39-14.85 186.36-11.4 185.34-7.95 183.16-5.2 180.99-2.45 177.51-0.83 174.04 0.8 169.14 0.8L169.14 0.8Q163.49 0.8 159.91-1.3 156.34-3.4 154.66-7.13 152.99-10.85 152.99-15.7L152.99-15.7Q152.99-19.3 154.01-22.73 155.04-26.15 157.21-28.9 159.39-31.65 162.86-33.27 166.34-34.9 171.24-34.9L171.24-34.9Q176.94-34.9 180.49-32.83 184.04-30.75 185.71-27.05 187.39-23.35 187.39-18.45ZM182.14-15.6L182.14-15.6Q182.14-18.85 181.64-21.85 181.14-24.85 179.86-27.28 178.59-29.7 176.31-31.1 174.04-32.5 170.44-32.5L170.44-32.5Q167.39-32.5 165.26-31.38 163.14-30.25 161.76-28.48 160.39-26.7 159.61-24.65 158.84-22.6 158.54-20.7 158.24-18.8 158.24-17.5L158.24-17.5Q158.24-14.4 158.81-11.55 159.39-8.7 160.74-6.45 162.09-4.2 164.34-2.9 166.59-1.6 169.94-1.6L169.94-1.6Q172.69-1.6 174.76-2.58 176.84-3.55 178.24-5.15 179.64-6.75 180.51-8.63 181.39-10.5 181.76-12.33 182.14-14.15 182.14-15.6ZM222.69 0.45L214.39-26.55 214.19-26.55 206.74 0 202.14 0.45 193.99-30.8Q193.64-31.65 192.81-32.08 191.99-32.5 189.74-32.95L189.74-32.95 189.89-34.4Q191.49-34.35 193.09-34.3 194.69-34.25 196.54-34.25L196.54-34.25Q200.14-34.25 203.29-34.4L203.29-34.4 203.44-32.95Q201.44-32.55 200.24-32.18 199.04-31.8 199.04-31.1L199.04-31.1Q199.04-30.95 199.54-28.78 200.04-26.6 200.91-23 201.79-19.4 202.89-14.88 203.99-10.35 205.14-5.45L205.14-5.45 205.39-5.45Q206.64-9.55 207.81-13.68 208.99-17.8 209.99-21.48 210.99-25.15 211.74-28.05 212.49-30.95 212.91-32.6 213.34-34.25 213.34-34.25L213.34-34.25 216.59-34.25 225.39-5.45 225.64-5.45Q226.29-8.25 227.06-11.5 227.84-14.75 228.61-18 229.39-21.25 229.99-24.03 230.59-26.8 230.96-28.68 231.34-30.55 231.34-31.05L231.34-31.05Q231.34-31.75 230.21-32.15 229.09-32.55 227.04-32.95L227.04-32.95 227.19-34.4Q228.79-34.35 230.39-34.3 231.99-34.25 233.84-34.25L233.84-34.25Q235.74-34.25 236.86-34.3 237.99-34.35 239.54-34.4L239.54-34.4 239.69-32.95Q237.44-32.5 236.44-31.98 235.44-31.45 235.19-30.5L235.19-30.5Q235.19-30.5 234.81-28.98 234.44-27.45 233.79-24.88 233.14-22.3 232.31-19.07 231.49-15.85 230.59-12.4 229.69-8.95 228.84-5.75 227.99-2.55 227.29 0L227.29 0 222.69 0.45ZM273.98-26.45L273.98-26.45 272.63-25.85Q271.58-29.7 269.76-30.95 267.93-32.2 265.13-32.2L265.13-32.2Q262.23-32.2 260.81-30.78 259.38-29.35 259.38-27.45L259.38-27.45Q259.38-26 260.23-24.55 261.08-23.1 262.73-22L262.73-22 270.63-16.85Q275.83-13.45 275.83-8.8L275.83-8.8Q275.83-6.55 274.58-4.4 273.33-2.25 270.83-0.88 268.33 0.5 264.53 0.5L264.53 0.5Q261.93 0.5 259.06 0 256.18-0.5 254.23-1.3L254.23-1.3Q254.48-2.65 254.76-4.48 255.03-6.3 255.03-8.65L255.03-8.65 256.38-9.25Q256.88-6.55 257.73-4.98 258.58-3.4 260.06-2.73 261.53-2.05 263.88-2.05L263.88-2.05Q266.18-2.05 267.66-2.88 269.13-3.7 269.88-4.95 270.63-6.2 270.63-7.6L270.63-7.6Q270.63-10.65 267.38-12.75L267.38-12.75 259.38-18Q257.03-19.55 255.91-21.58 254.78-23.6 254.78-25.7L254.78-25.7Q254.78-28 256.03-30.05 257.28-32.1 259.58-33.4 261.88-34.7 265.08-34.7L265.08-34.7Q266.48-34.7 267.46-34.52 268.43-34.35 269.28-34.15 270.13-33.95 271.13-33.95L271.13-33.95Q272.13-33.95 273.38-34.25L273.38-34.25 273.38-33.5Q273.38-32.5 273.48-31.18 273.58-29.85 273.71-28.58 273.83-27.3 273.98-26.45ZM278.38 0.15L278.38 0.15 278.23-1.3Q280.58-1.75 281.58-2.27 282.58-2.8 282.88-3.75L282.88-3.75 292.83-34.2 297.03-34.7 308.68-3.45Q309.03-2.6 309.85-2.15 310.68-1.7 312.93-1.3L312.93-1.3 312.78 0.15Q311.13 0.05 309.53 0.03 307.93 0 306.13 0L306.13 0Q302.18 0 299.08 0.15L299.08 0.15 298.93-1.3Q301.53-1.8 302.43-2.2 303.33-2.6 303.33-3.2L303.33-3.2 300.58-12.1 289.28-12.1 286.58-3.2Q286.58-2.6 287.53-2.2 288.48-1.8 290.88-1.3L290.88-1.3 290.73 0.15Q289.08 0.05 287.48 0.03 285.88 0 284.08 0L284.08 0Q282.53 0 281.43 0.03 280.33 0.05 278.38 0.15ZM294.53-29.5L289.98-14.4 299.78-14.4 294.73-29.5 294.53-29.5ZM325.73-4.35L325.73-4.35 325.98-4.35Q326.98-7.55 328.13-11.13 329.28-14.7 330.38-18.15 331.48-21.6 332.38-24.45 333.28-27.3 333.8-29.08 334.32-30.85 334.28-31.05L334.28-31.05Q334.28-31.75 333.15-32.15 332.03-32.55 329.98-32.95L329.98-32.95 330.13-34.4Q331.73-34.35 333.32-34.3 334.93-34.25 336.78-34.25L336.78-34.25Q338.68-34.25 339.8-34.3 340.93-34.35 342.48-34.4L342.48-34.4 342.63-32.95Q340.38-32.5 339.45-31.98 338.53-31.45 338.13-30.5L338.13-30.5Q338.13-30.5 337.57-28.93 337.03-27.35 336.1-24.73 335.18-22.1 334.03-18.82 332.88-15.55 331.7-12.13 330.53-8.7 329.48-5.55 328.43-2.4 327.68 0L327.68 0 322.78 0.45 312.07-30.8Q311.73-31.65 310.9-32.08 310.07-32.5 307.82-32.95L307.82-32.95 307.98-34.4Q309.57-34.35 311.18-34.3 312.78-34.25 314.63-34.25L314.63-34.25Q316.53-34.25 318.1-34.3 319.68-34.35 321.23-34.4L321.23-34.4 321.38-32.95Q319.38-32.55 318.18-32.18 316.98-31.8 316.98-31.1L316.98-31.1Q316.98-30.9 317.55-29.05 318.13-27.2 319.1-24.28 320.07-21.35 321.25-17.88 322.43-14.4 323.6-10.88 324.78-7.35 325.73-4.35ZM365.02-11.8L365.02-11.8 363.27-11.55Q362.77-14.05 362.42-14.9 362.07-15.75 361.12-15.95L361.12-15.95Q360.52-16.1 359.22-16.18 357.92-16.25 356.32-16.3 354.72-16.35 353.12-16.35L353.12-16.35Q353.12-11.2 353.27-8.4 353.42-5.6 353.55-4.5 353.67-3.4 353.67-3.4L353.67-3.4Q353.92-2.5 355.52-2.15 357.12-1.8 358.72-1.8L358.72-1.8Q361.32-1.8 363.42-2.15 365.52-2.5 367.12-3.93 368.72-5.35 369.72-8.55L369.72-8.55 371.07-7.95Q370.77-7.05 370.52-5.5 370.27-3.95 370.1-2.43 369.92-0.9 369.87 0L369.87 0 349.87 0Q348.02 0 346.75 0.03 345.47 0.05 343.87 0.15L343.87 0.15 343.72-1.3Q345.97-1.75 347.02-2.13 348.07-2.5 348.17-3.45L348.17-3.45Q348.17-3.45 348.27-4.63 348.37-5.8 348.5-8.75 348.62-11.7 348.62-17.1L348.62-17.1Q348.62-22.5 348.52-25.48 348.42-28.45 348.32-29.63 348.22-30.8 348.22-30.8L348.22-30.8Q348.12-31.75 347.25-32.13 346.37-32.5 344.12-32.95L344.12-32.95 344.27-34.4Q345.87-34.35 346.97-34.3 348.07-34.25 349.92-34.25L349.92-34.25Q353.17-34.25 356.8-34.25 360.42-34.25 363.65-34.33 366.87-34.4 368.92-34.55L368.92-34.55 368.92-33.8Q368.92-32.75 369-31.35 369.07-29.95 369.22-28.63 369.37-27.3 369.52-26.45L369.52-26.45 368.17-25.85Q367.52-27.95 366.8-29.23 366.07-30.5 365-31.13 363.92-31.75 362.3-31.95 360.67-32.15 358.27-32.15L358.27-32.15Q356.47-32.15 355.15-32 353.82-31.85 353.67-31.05L353.67-31.05Q353.67-31.05 353.55-29.85 353.42-28.65 353.3-25.88 353.17-23.1 353.12-18.35L353.12-18.35Q354.72-18.35 356.32-18.4 357.92-18.45 359.22-18.53 360.52-18.6 361.12-18.75L361.12-18.75Q362.07-19 362.42-19.83 362.77-20.65 363.27-23.15L363.27-23.15 365.02-22.95Q364.82-21.6 364.72-20.2 364.62-18.8 364.62-17.4L364.62-17.4Q364.62-16 364.72-14.6 364.82-13.2 365.02-11.8ZM401.37-34.25L401.37-34.25Q406.22-34.25 409.69-34.3 413.17-34.35 416.22-34.55L416.22-34.55 416.22-33.8Q416.22-32.75 416.29-31.35 416.37-29.95 416.52-28.63 416.67-27.3 416.82-26.45L416.82-26.45 415.47-25.85Q414.82-27.95 414.09-29.23 413.37-30.5 412.29-31.13 411.22-31.75 409.59-31.95 407.97-32.15 405.57-32.15L405.57-32.15Q404.97-32.15 404.49-31.95 404.02-31.75 403.92-30.8L403.92-30.8Q403.92-30.8 403.82-29.63 403.72-28.45 403.62-25.48 403.52-22.5 403.52-17.1L403.52-17.1Q403.52-11.7 403.62-8.75 403.72-5.8 403.82-4.63 403.92-3.45 403.92-3.45L403.92-3.45Q404.02-2.5 404.97-2.13 405.92-1.75 408.17-1.3L408.17-1.3 408.02 0.15Q406.47 0.05 404.87 0.03 403.27 0 401.37 0L401.37 0Q397.47 0 394.32 0.15L394.32 0.15 394.17-1.3Q396.42-1.75 397.47-2.13 398.52-2.5 398.62-3.45L398.62-3.45Q398.62-3.45 398.72-4.63 398.82-5.8 398.92-8.78 399.02-11.75 399.02-17.1L399.02-17.1Q399.02-22.5 398.92-25.48 398.82-28.45 398.72-29.63 398.62-30.8 398.62-30.8L398.62-30.8Q398.52-31.75 398.07-31.95 397.62-32.15 397.07-32.15L397.07-32.15Q394.67-32.15 393.04-31.95 391.42-31.75 390.37-31.13 389.32-30.5 388.57-29.23 387.82-27.95 387.17-25.85L387.17-25.85 385.82-26.45Q385.97-27.3 386.12-28.63 386.27-29.95 386.34-31.35 386.42-32.75 386.42-33.8L386.42-33.8 386.42-34.55Q389.52-34.35 393.02-34.3 396.52-34.25 401.37-34.25ZM454.22-18.45L454.22-18.45Q454.22-14.85 453.19-11.4 452.17-7.95 449.99-5.2 447.81-2.45 444.34-0.83 440.87 0.8 435.97 0.8L435.97 0.8Q430.31 0.8 426.74-1.3 423.17-3.4 421.49-7.13 419.81-10.85 419.81-15.7L419.81-15.7Q419.81-19.3 420.84-22.73 421.87-26.15 424.04-28.9 426.22-31.65 429.69-33.27 433.17-34.9 438.06-34.9L438.06-34.9Q443.76-34.9 447.31-32.83 450.87-30.75 452.54-27.05 454.22-23.35 454.22-18.45ZM448.97-15.6L448.97-15.6Q448.97-18.85 448.47-21.85 447.97-24.85 446.69-27.28 445.42-29.7 443.14-31.1 440.87-32.5 437.26-32.5L437.26-32.5Q434.22-32.5 432.09-31.38 429.97-30.25 428.59-28.48 427.22-26.7 426.44-24.65 425.67-22.6 425.37-20.7 425.06-18.8 425.06-17.5L425.06-17.5Q425.06-14.4 425.64-11.55 426.22-8.7 427.56-6.45 428.92-4.2 431.17-2.9 433.42-1.6 436.76-1.6L436.76-1.6Q439.51-1.6 441.59-2.58 443.67-3.55 445.06-5.15 446.47-6.75 447.34-8.63 448.22-10.5 448.59-12.33 448.97-14.15 448.97-15.6ZM491.41-26.3L491.41-26.3 491.11-26.3 480.41-0.05 477.31 0.5 466.61-26.3 466.41-26.3Q466.31-21.9 466.11-17.5 465.91-13.1 465.91-8.7L465.91-8.7Q465.91-5.95 465.99-4.7 466.06-3.45 466.06-3.45L466.06-3.45Q466.16-2.5 467.34-2.13 468.51-1.75 470.76-1.3L470.76-1.3 470.61 0.15Q469.06 0.05 467.24 0.03 465.41 0 463.51 0L463.51 0Q462.26 0 461.41 0 460.56 0 459.79 0.03 459.01 0.05 457.96 0.15L457.96 0.15 457.81-1.3Q460.06-1.75 461.04-2.15 462.01-2.55 462.11-3.45L462.11-3.45Q462.56-6.9 462.76-10.18 462.96-13.45 463.04-16.85 463.11-20.25 463.11-24.15L463.11-24.15Q463.11-27.85 463.01-29.33 462.91-30.8 462.91-30.8L462.91-30.8Q462.81-31.75 461.94-32.13 461.06-32.5 458.81-32.95L458.81-32.95 458.96-34.4Q460.01-34.35 461.59-34.33 463.16-34.3 464.79-34.27 466.41-34.25 467.66-34.25L467.66-34.25 479.56-4.75 491.46-34.25Q492.71-34.25 494.39-34.27 496.06-34.3 497.66-34.33 499.26-34.35 500.31-34.4L500.31-34.4 500.46-32.95Q498.21-32.5 497.34-32.13 496.46-31.75 496.36-30.8L496.36-30.8Q496.36-30.8 496.26-29.85 496.16-28.9 496.16-26.1L496.16-26.1Q496.16-25.8 496.19-24.6 496.21-23.4 496.26-21.88 496.31-20.35 496.36-19.03 496.41-17.7 496.41-17.1L496.41-17.1Q496.61-12.9 496.79-10.23 496.96-7.55 497.06-6.08 497.16-4.6 497.24-4.03 497.31-3.45 497.31-3.45L497.31-3.45Q497.41-2.5 498.36-2.13 499.31-1.75 501.56-1.3L501.56-1.3 501.41 0.15Q499.86 0.05 498.26 0.03 496.66 0 494.76 0L494.76 0Q490.86 0 487.71 0.15L487.71 0.15 487.56-1.3Q489.81-1.75 490.91-2.13 492.01-2.5 492.01-3.45L492.01-3.45Q492.01-3.45 492.04-4.63 492.06-5.8 492.06-7.9L492.06-7.9Q492.06-9.55 492.01-11.93 491.96-14.3 491.86-16.95 491.76-19.6 491.64-22.05 491.51-24.5 491.41-26.3ZM539.61-18.45L539.61-18.45Q539.61-14.85 538.59-11.4 537.56-7.95 535.38-5.2 533.21-2.45 529.74-0.83 526.26 0.8 521.36 0.8L521.36 0.8Q515.71 0.8 512.13-1.3 508.56-3.4 506.89-7.13 505.21-10.85 505.21-15.7L505.21-15.7Q505.21-19.3 506.24-22.73 507.26-26.15 509.44-28.9 511.61-31.65 515.09-33.27 518.56-34.9 523.46-34.9L523.46-34.9Q529.16-34.9 532.71-32.83 536.26-30.75 537.94-27.05 539.61-23.35 539.61-18.45ZM534.36-15.6L534.36-15.6Q534.36-18.85 533.86-21.85 533.36-24.85 532.09-27.28 530.81-29.7 528.54-31.1 526.26-32.5 522.66-32.5L522.66-32.5Q519.61-32.5 517.49-31.38 515.36-30.25 513.99-28.48 512.61-26.7 511.84-24.65 511.06-22.6 510.76-20.7 510.46-18.8 510.46-17.5L510.46-17.5Q510.46-14.4 511.04-11.55 511.61-8.7 512.96-6.45 514.31-4.2 516.56-2.9 518.81-1.6 522.16-1.6L522.16-1.6Q524.91-1.6 526.99-2.58 529.06-3.55 530.46-5.15 531.86-6.75 532.74-8.63 533.61-10.5 533.99-12.33 534.36-14.15 534.36-15.6ZM553.41-3.45L553.41-3.45Q553.51-2.5 554.48-2.13 555.46-1.75 557.76-1.3L557.76-1.3 557.61 0.15Q556.01 0.05 554.36 0.03 552.71 0 550.76 0L550.76 0Q546.81 0 543.66 0.15L543.66 0.15 543.51-1.3Q545.76-1.75 546.81-2.13 547.86-2.5 547.96-3.45L547.96-3.45Q547.96-3.45 548.06-4.63 548.16-5.8 548.26-8.78 548.36-11.75 548.36-17.1L548.36-17.1Q548.36-22.5 548.26-25.48 548.16-28.45 548.06-29.63 547.96-30.8 547.96-30.8L547.96-30.8Q547.86-31.75 546.98-32.13 546.11-32.5 543.86-32.95L543.86-32.95 544.01-34.4Q545.61-34.35 547.23-34.3 548.86-34.25 550.71-34.25L550.71-34.25 559.36-34.25Q562.76-34.25 564.96-33.13 567.16-32 568.21-30.18 569.26-28.35 569.26-26.25L569.26-26.25Q569.26-23.7 567.81-21.2 566.36-18.7 562.51-16.8L562.51-16.8 571.31-2.15Q571.31-2.15 572.26-1.83 573.21-1.5 575.46-1.3L575.46-1.3 575.31 0.15Q574.11 0.15 572.66 0.2 571.21 0.25 569.88 0.3 568.56 0.35 567.71 0.4 566.86 0.45 566.86 0.45L566.86 0.45 558.01-16.1Q557.36-16.05 556.36-16.03 555.36-16 552.86-16L552.86-16Q552.86-11.95 552.93-9.47 553.01-7 553.13-5.7 553.26-4.4 553.33-3.93 553.41-3.45 553.41-3.45ZM560.71-18.45L560.71-18.45Q562.56-19.6 563.63-21.63 564.71-23.65 564.71-26.25L564.71-26.25Q564.71-29.1 562.63-30.63 560.56-32.15 556.41-32.15L556.41-32.15Q554.61-32.15 554.08-31.95 553.56-31.75 553.36-31.05L553.36-31.05Q553.36-31.05 553.23-29.88 553.11-28.7 552.98-25.85 552.86-23 552.86-17.95L552.86-17.95Q558.36-17.95 560.71-18.45ZM586.8-3.45L586.8-3.45Q586.9-2.5 587.88-2.13 588.85-1.75 591.15-1.3L591.15-1.3 591 0.15Q589.4 0.05 587.75 0.03 586.1 0 584.15 0L584.15 0Q580.2 0 577.05 0.15L577.05 0.15 576.9-1.3Q579.15-1.75 580.2-2.13 581.25-2.5 581.35-3.45L581.35-3.45Q581.35-3.45 581.45-4.63 581.55-5.8 581.65-8.78 581.75-11.75 581.75-17.1L581.75-17.1Q581.75-22.5 581.65-25.48 581.55-28.45 581.45-29.63 581.35-30.8 581.35-30.8L581.35-30.8Q581.25-31.75 580.38-32.13 579.5-32.5 577.25-32.95L577.25-32.95 577.4-34.4Q579-34.35 580.63-34.3 582.25-34.25 584.1-34.25L584.1-34.25 592.75-34.25Q596.15-34.25 598.35-33.13 600.55-32 601.6-30.18 602.65-28.35 602.65-26.25L602.65-26.25Q602.65-23.7 601.2-21.2 599.75-18.7 595.9-16.8L595.9-16.8 604.7-2.15Q604.7-2.15 605.65-1.83 606.6-1.5 608.85-1.3L608.85-1.3 608.7 0.15Q607.5 0.15 606.05 0.2 604.6 0.25 603.28 0.3 601.95 0.35 601.1 0.4 600.25 0.45 600.25 0.45L600.25 0.45 591.4-16.1Q590.75-16.05 589.75-16.03 588.75-16 586.25-16L586.25-16Q586.25-11.95 586.33-9.47 586.4-7 586.53-5.7 586.65-4.4 586.73-3.93 586.8-3.45 586.8-3.45ZM594.1-18.45L594.1-18.45Q595.95-19.6 597.03-21.63 598.1-23.65 598.1-26.25L598.1-26.25Q598.1-29.1 596.03-30.63 593.95-32.15 589.8-32.15L589.8-32.15Q588-32.15 587.48-31.95 586.95-31.75 586.75-31.05L586.75-31.05Q586.75-31.05 586.63-29.88 586.5-28.7 586.38-25.85 586.25-23 586.25-17.95L586.25-17.95Q591.75-17.95 594.1-18.45ZM641.95-18.45L641.95-18.45Q641.95-14.85 640.93-11.4 639.9-7.95 637.73-5.2 635.55-2.45 632.08-0.83 628.6 0.8 623.7 0.8L623.7 0.8Q618.05 0.8 614.48-1.3 610.9-3.4 609.23-7.13 607.55-10.85 607.55-15.7L607.55-15.7Q607.55-19.3 608.58-22.73 609.6-26.15 611.78-28.9 613.95-31.65 617.43-33.27 620.9-34.9 625.8-34.9L625.8-34.9Q631.5-34.9 635.05-32.83 638.6-30.75 640.28-27.05 641.95-23.35 641.95-18.45ZM636.7-15.6L636.7-15.6Q636.7-18.85 636.2-21.85 635.7-24.85 634.43-27.28 633.15-29.7 630.88-31.1 628.6-32.5 625-32.5L625-32.5Q621.95-32.5 619.83-31.38 617.7-30.25 616.33-28.48 614.95-26.7 614.18-24.65 613.4-22.6 613.1-20.7 612.8-18.8 612.8-17.5L612.8-17.5Q612.8-14.4 613.38-11.55 613.95-8.7 615.3-6.45 616.65-4.2 618.9-2.9 621.15-1.6 624.5-1.6L624.5-1.6Q627.25-1.6 629.33-2.58 631.4-3.55 632.8-5.15 634.2-6.75 635.08-8.63 635.95-10.5 636.33-12.33 636.7-14.15 636.7-15.6ZM677.25 0.45L668.95-26.55 668.75-26.55 661.3 0 656.7 0.45 648.55-30.8Q648.2-31.65 647.37-32.08 646.55-32.5 644.3-32.95L644.3-32.95 644.45-34.4Q646.05-34.35 647.65-34.3 649.25-34.25 651.1-34.25L651.1-34.25Q654.7-34.25 657.85-34.4L657.85-34.4 658-32.95Q656-32.55 654.8-32.18 653.6-31.8 653.6-31.1L653.6-31.1Q653.6-30.95 654.1-28.78 654.6-26.6 655.47-23 656.35-19.4 657.45-14.88 658.55-10.35 659.7-5.45L659.7-5.45 659.95-5.45Q661.2-9.55 662.37-13.68 663.55-17.8 664.55-21.48 665.55-25.15 666.3-28.05 667.05-30.95 667.47-32.6 667.9-34.25 667.9-34.25L667.9-34.25 671.15-34.25 679.95-5.45 680.2-5.45Q680.85-8.25 681.62-11.5 682.4-14.75 683.17-18 683.95-21.25 684.55-24.03 685.15-26.8 685.52-28.68 685.9-30.55 685.9-31.05L685.9-31.05Q685.9-31.75 684.77-32.15 683.65-32.55 681.6-32.95L681.6-32.95 681.75-34.4Q683.35-34.35 684.95-34.3 686.55-34.25 688.4-34.25L688.4-34.25Q690.3-34.25 691.42-34.3 692.55-34.35 694.1-34.4L694.1-34.4 694.25-32.95Q692-32.5 691-31.98 690-31.45 689.75-30.5L689.75-30.5Q689.75-30.5 689.37-28.98 689-27.45 688.35-24.88 687.7-22.3 686.87-19.07 686.05-15.85 685.15-12.4 684.25-8.95 683.4-5.75 682.55-2.55 681.85 0L681.85 0 677.25 0.45Z" opacity="1" transform="matrix(1,0,0,1,0,0)" fill="#000000" class="slogan-text-1" data-fill-palette-color="secondary" id="text-1"></path></svg></g></svg></g></svg></g></svg></g><g transform="matrix(1,0,0,1,95.74665400150283,0)"><svg viewBox="0 0 204.02669199699432 204.02669199699432" height="204.02669199699432" width="204.02669199699432"><g><svg></svg></g><g id="icon-0"><svg viewBox="0 0 204.02669199699432 204.02669199699432" height="204.02669199699432" width="204.02669199699432"><g><path d="M0 102.013c0-56.34 45.673-102.013 102.013-102.013 56.34 0 102.013 45.673 102.014 102.013 0 56.34-45.673 102.013-102.014 102.014-56.34 0-102.013-45.673-102.013-102.014zM102.013 198.867c53.491 0 96.854-43.363 96.854-96.854 0-53.491-43.363-96.854-96.854-96.853-53.491 0-96.854 43.363-96.853 96.853 0 53.491 43.363 96.854 96.853 96.854z" data-fill-palette-color="accent" fill="#000000" stroke="transparent"></path></g><g transform="matrix(1,0,0,1,41.237000453921155,42.29997873749579)"><svg viewBox="0 0 121.552691089152 119.42673452200273" height="119.42673452200273" width="121.552691089152"><g><svg xmlns="http://www.w3.org/2000/svg" xmlns:xlink="http://www.w3.org/1999/xlink" version="1.1" x="0" y="0" viewBox="0 0.875 100 98.25099999999999" enable-background="new 0 0 100 100" xml:space="preserve" height="119.42673452200273" width="121.552691089152" class="icon-cg-0" data-fill-palette-color="accent" id="cg-0"><path fill-rule="evenodd" clip-rule="evenodd" d="M100 49.666c0 13.657-4.907 25.305-14.72 34.946-9.814 9.676-21.564 14.514-35.254 14.514-13.69 0-25.426-4.753-35.204-14.256C4.941 75.296 0 63.682 0 50.026c0-13.655 4.941-25.287 14.822-34.895C24.601 5.627 36.336 0.877 50.026 0.875c13.689 0 25.406 4.684 35.151 14.05C95.059 24.431 100 36.011 100 49.666zM95.119 49.388c0-12.123-4.478-22.514-13.431-31.174C72.8 9.652 62.278 5.373 50.122 5.371l-4.901 10.048 5.343 1.078 4.166-4.166 7.353 0.49 1.471 3.921-4.411 4.411v2.647l2.745 0.539 1.274-2.059 4.853-3.039-0.147 2.059 1.813 3.137-2.156 2.254 1.372 1.324-3.235 0.196 1.324 2.647-7.01 3.333 1.078 3.971h-2.206l-0.979-3.921-5.146-0.098-0.932 1.52-2.107-0.98-3.432 3.431 2.745 3.284-0.098 3.627 2.892 2.157 16.861 1.912 5.343 3.774-0.638 9.362L61.739 73.846c-0.752 0.753-1.487 2.844-2.206 6.275-0.687 3.234-0.931 5.538-0.734 6.91l-1.765 2.01c-1.373-2.712-3.154-6.879-5.344-12.499-0.523-1.927-0.979-4.378-1.372-7.353-0.294-2.45-0.588-4.916-0.882-7.4l-7.353-6.471 6.52-7.695-2.696-3.873c-4.151-0.849-6.847-1.601-8.088-2.254-1.242-0.687-3.382-2.564-6.421-5.637l2.549 4.95-1.716 0.735-3.97-7.451 0.784-6.96-1.226-4.902-3.823-3.725-2.794-0.686-2.451 1.715-2.695 0.687C8.638 28.786 4.93 38.621 4.93 49.73c0 12.418 4.443 22.957 13.333 31.615 8.789 8.562 19.408 12.84 31.859 12.842 12.45 0 23.053-4.362 31.812-13.088C90.723 72.376 95.117 61.805 95.119 49.388z" fill="#000000" data-fill-palette-color="accent"></path></svg></g></svg></g></svg></g></svg></g><g></g></svg></g><defs></defs></svg><rect width="311.04807650913904" height="247.2" fill="none" stroke="none" visibility="hidden"></rect></g></svg></g></svg>